<?xml version="1.0" standalone="no"?>
<!DOCTYPE svg PUBLIC "-//W3C//DTD SVG 20010904//EN"
 "http://www.w3.org/TR/2001/REC-SVG-20010904/DTD/svg10.dtd">
<svg version="1.0" xmlns="http://www.w3.org/2000/svg"
 width="100.000000pt" height="100.000000pt" viewBox="0 0 100.000000 100.000000"
 preserveAspectRatio="xMidYMid meet">

<g transform="translate(0.000000,100.000000) scale(0.100000,-0.100000)"
fill="#000000" stroke="none">
<path d="M200 867 c-56 -18 -134 -102 -149 -162 -12 -49 -18 -64 -44 -106 -10
-18 -9 -23 11 -36 29 -20 31 -84 2 -113 -11 -11 -20 -33 -20 -50 0 -17 9 -39
20 -50 16 -16 20 -33 20 -85 0 -75 17 -116 55 -133 37 -17 773 -17 810 0 38
17 55 58 55 133 0 52 4 69 20 85 26 26 26 74 0 100 -28 28 -28 95 0 110 25 13
25 30 1 61 -10 13 -24 49 -31 79 -10 44 -23 64 -64 105 -32 32 -66 55 -92 63
-54 16 -543 15 -594 -1z m627 -59 c43 -28 76 -74 87 -120 l6 -28 -420 0 -420
0 6 28 c15 64 70 123 132 142 15 5 149 8 298 7 l271 -2 40 -27z m112 -201 c6
-8 8 -17 4 -20 -10 -11 -70 -8 -97 4 -20 9 -32 8 -60 -5 -43 -20 -86 -20 -130
1 -33 15 -37 15 -85 -5 -62 -27 -80 -27 -142 0 -48 20 -52 20 -85 5 -44 -21
-84 -21 -128 0 -29 13 -40 14 -61 5 -28 -13 -88 -16 -98 -5 -4 3 -2 12 4 20
17 19 861 19 878 0z m-729 -62 c34 -19 102 -19 143 1 32 15 36 15 75 -5 51
-26 94 -26 150 -1 40 18 46 18 72 5 38 -20 103 -19 142 1 24 12 36 14 55 5 13
-6 35 -11 48 -11 21 0 25 -5 25 -30 l0 -30 -420 0 -420 0 0 30 c0 26 4 30 28
31 15 0 36 4 47 9 27 11 26 11 55 -5z m744 -127 c8 -13 8 -23 0 -35 -10 -17
-45 -18 -449 -21 -451 -2 -465 -1 -465 37 0 41 7 41 464 39 405 -3 440 -4 450
-20z m-34 -158 c0 -106 24 -100 -420 -100 -444 0 -420 -6 -420 100 l0 60 420
0 420 0 0 -60z"/>
<path d="M324 806 c-10 -26 4 -48 28 -44 17 2 23 10 23 28 0 18 -6 26 -23 28
-13 2 -25 -3 -28 -12z"/>
<path d="M224 786 c-10 -26 4 -48 28 -44 17 2 23 10 23 28 0 18 -6 26 -23 28
-13 2 -25 -3 -28 -12z"/>
<path d="M284 726 c-10 -26 4 -48 28 -44 17 2 23 10 23 28 0 18 -6 26 -23 28
-13 2 -25 -3 -28 -12z"/>
</g>
</svg>
